<svg xmlns="http://www.w3.org/2000/svg" width="900" height="540" viewBox="0 0 900 540" role="img" aria-labelledby="title desc">
<title id="title">Post-hoc external model-score distributions</title>
<desc id="desc">Exploratory histogram counts by frozen confusion outcome. Scores are terrain-similarity scores, not archaeological probabilities.</desc>
<rect width="100%" height="100%" fill="#fbfaf7"/>
<text x="450.0" y="34" text-anchor="middle" font-family="Arial" font-size="22" font-weight="700" fill="#17324d">Post-hoc external model-score distributions</text>
<rect x="90" y="90" width="740" height="350" fill="#fff" stroke="#17324d"/>
<text x="460.0" y="490" text-anchor="middle" font-family="Arial" font-size="14">Frozen model score</text>
<polyline points="127.0,440.0 201.0,440.0 275.0,440.0 349.0,440.0 423.0,440.0 497.0,381.7 571.0,265.0 645.0,245.6 719.0,109.4 793.0,245.6" fill="none" stroke="#2a9d8f" stroke-width="3"/>
<line x1="115" y1="60" x2="141" y2="60" stroke="#2a9d8f" stroke-width="4"/>
<text x="149" y="65" font-family="Arial" font-size="13">TP</text>
<polyline points="127.0,342.8 201.0,167.8 275.0,90.0 349.0,226.1 423.0,362.2 497.0,440.0 571.0,440.0 645.0,440.0 719.0,440.0 793.0,440.0" fill="none" stroke="#457b9d" stroke-width="3"/>
<line x1="290" y1="60" x2="316" y2="60" stroke="#457b9d" stroke-width="4"/>
<text x="324" y="65" font-family="Arial" font-size="13">TN</text>
<polyline points="127.0,440.0 201.0,440.0 275.0,440.0 349.0,440.0 423.0,440.0 497.0,342.8 571.0,401.1 645.0,420.6 719.0,440.0 793.0,440.0" fill="none" stroke="#e9c46a" stroke-width="3"/>
<line x1="465" y1="60" x2="491" y2="60" stroke="#e9c46a" stroke-width="4"/>
<text x="499" y="65" font-family="Arial" font-size="13">FP</text>
<polyline points="127.0,440.0 201.0,420.6 275.0,420.6 349.0,323.3 423.0,381.7 497.0,440.0 571.0,440.0 645.0,440.0 719.0,440.0 793.0,440.0" fill="none" stroke="#e76f51" stroke-width="3"/>
<line x1="640" y1="60" x2="666" y2="60" stroke="#e76f51" stroke-width="4"/>
<text x="674" y="65" font-family="Arial" font-size="13">FN</text>
<text x="450" y="520" text-anchor="middle" font-family="Arial" font-size="12" fill="#52606d">POST-HOC / EXPLORATORY · fixed 0.1-wide bins · no threshold optimization</text>
</svg>
